<mxfile host="app.diagrams.net" agent="Mozilla/5.0 (Windows NT 10.0; Win64; x64) AppleWebKit/537.36 (KHTML, like Gecko) Chrome/128.0.0.0 Safari/537.36" version="24.7.12">
  <diagram name="第 1 页" id="Zdd4O_8U9urGJ2uWjXP6">
    <mxGraphModel dx="850" dy="780" grid="1" gridSize="10" guides="1" tooltips="1" connect="1" arrows="1" fold="1" page="1" pageScale="1" pageWidth="827" pageHeight="1169" math="0" shadow="0">
      <root>
        <mxCell id="0" />
        <mxCell id="1" parent="0" />
        <mxCell id="4AtZvL3RW2-XeUfKdOJ_-1" value="" style="rounded=0;whiteSpace=wrap;html=1;fillColor=#eeeeee;strokeColor=#36393d;" vertex="1" parent="1">
          <mxGeometry x="160" y="190" width="620" height="60" as="geometry" />
        </mxCell>
        <mxCell id="4AtZvL3RW2-XeUfKdOJ_-2" value="&lt;b&gt;&lt;font style=&quot;font-size: 14px;&quot;&gt;研究目标&lt;/font&gt;&lt;/b&gt;" style="text;html=1;align=center;verticalAlign=middle;whiteSpace=wrap;rounded=0;" vertex="1" parent="1">
          <mxGeometry x="440" y="190" width="60" height="30" as="geometry" />
        </mxCell>
        <mxCell id="4AtZvL3RW2-XeUfKdOJ_-3" value="&lt;span style=&quot;font-size: 14px;&quot;&gt;&lt;b&gt;&lt;font color=&quot;#1e12cb&quot;&gt;应用算法及演示验证&lt;/font&gt;&lt;/b&gt;&lt;/span&gt;" style="text;html=1;align=center;verticalAlign=middle;whiteSpace=wrap;rounded=0;" vertex="1" parent="1">
          <mxGeometry x="265" y="220" width="410" height="30" as="geometry" />
        </mxCell>
        <mxCell id="4AtZvL3RW2-XeUfKdOJ_-4" value="" style="rounded=0;whiteSpace=wrap;html=1;fillColor=#FFCCCC;strokeColor=#36393d;opacity=50;" vertex="1" parent="1">
          <mxGeometry x="160" y="290" width="620" height="120" as="geometry" />
        </mxCell>
        <mxCell id="4AtZvL3RW2-XeUfKdOJ_-7" value="&lt;span style=&quot;font-size: 14px;&quot;&gt;&lt;b&gt;研究内容&lt;/b&gt;&lt;/span&gt;" style="text;html=1;align=center;verticalAlign=middle;whiteSpace=wrap;rounded=0;" vertex="1" parent="1">
          <mxGeometry x="440" y="290" width="60" height="30" as="geometry" />
        </mxCell>
        <mxCell id="4AtZvL3RW2-XeUfKdOJ_-10" value="" style="rounded=0;whiteSpace=wrap;html=1;dashed=1;fillColor=#ffcccc;strokeColor=#36393d;" vertex="1" parent="1">
          <mxGeometry x="200" y="330" width="120" height="60" as="geometry" />
        </mxCell>
        <mxCell id="4AtZvL3RW2-XeUfKdOJ_-11" value="" style="rounded=0;whiteSpace=wrap;html=1;dashed=1;fillColor=#ffcccc;strokeColor=#36393d;" vertex="1" parent="1">
          <mxGeometry x="414" y="330" width="120" height="60" as="geometry" />
        </mxCell>
        <mxCell id="4AtZvL3RW2-XeUfKdOJ_-12" value="" style="rounded=0;whiteSpace=wrap;html=1;dashed=1;fillColor=#ffcccc;strokeColor=#36393d;" vertex="1" parent="1">
          <mxGeometry x="620" y="330" width="120" height="60" as="geometry" />
        </mxCell>
        <mxCell id="4AtZvL3RW2-XeUfKdOJ_-13" value="基于超算的量子模拟技术" style="text;html=1;align=center;verticalAlign=middle;whiteSpace=wrap;rounded=0;" vertex="1" parent="1">
          <mxGeometry x="220" y="345" width="80" height="30" as="geometry" />
        </mxCell>
        <mxCell id="4AtZvL3RW2-XeUfKdOJ_-14" value="量子经典融合应用演示" style="text;html=1;align=center;verticalAlign=middle;whiteSpace=wrap;rounded=0;" vertex="1" parent="1">
          <mxGeometry x="440" y="345" width="80" height="30" as="geometry" />
        </mxCell>
        <mxCell id="4AtZvL3RW2-XeUfKdOJ_-15" value="“经典+量子” 融合算法" style="text;html=1;align=center;verticalAlign=middle;whiteSpace=wrap;rounded=0;" vertex="1" parent="1">
          <mxGeometry x="640" y="345" width="80" height="30" as="geometry" />
        </mxCell>
        <mxCell id="4AtZvL3RW2-XeUfKdOJ_-16" value="" style="html=1;shadow=0;dashed=0;align=center;verticalAlign=middle;shape=mxgraph.arrows2.arrow;dy=0.49;dx=15.66;direction=south;notch=0;fillColor=#FFE4E3;strokeColor=#36393d;" vertex="1" parent="1">
          <mxGeometry x="444" y="418" width="60" height="26" as="geometry" />
        </mxCell>
        <mxCell id="4AtZvL3RW2-XeUfKdOJ_-17" value="" style="rounded=0;whiteSpace=wrap;html=1;opacity=50;fillColor=#f9f7ed;strokeColor=#36393d;" vertex="1" parent="1">
          <mxGeometry x="160" y="450" width="620" height="160" as="geometry" />
        </mxCell>
        <mxCell id="4AtZvL3RW2-XeUfKdOJ_-19" value="&lt;span style=&quot;font-size: 14px;&quot;&gt;&lt;b&gt;关键技术问题&lt;/b&gt;&lt;/span&gt;" style="text;html=1;align=center;verticalAlign=middle;whiteSpace=wrap;rounded=0;" vertex="1" parent="1">
          <mxGeometry x="425" y="450" width="90" height="30" as="geometry" />
        </mxCell>
        <mxCell id="4AtZvL3RW2-XeUfKdOJ_-20" value="" style="rounded=0;whiteSpace=wrap;html=1;fillColor=#fff2cc;strokeColor=#d6b656;dashed=1;" vertex="1" parent="1">
          <mxGeometry x="200" y="490" width="120" height="80" as="geometry" />
        </mxCell>
        <mxCell id="4AtZvL3RW2-XeUfKdOJ_-21" value="" style="rounded=0;whiteSpace=wrap;html=1;fillColor=#fff2cc;strokeColor=#d6b656;dashed=1;" vertex="1" parent="1">
          <mxGeometry x="414" y="490" width="120" height="80" as="geometry" />
        </mxCell>
        <mxCell id="4AtZvL3RW2-XeUfKdOJ_-22" value="" style="rounded=0;whiteSpace=wrap;html=1;fillColor=#fff2cc;strokeColor=#d6b656;dashed=1;" vertex="1" parent="1">
          <mxGeometry x="620" y="490" width="120" height="80" as="geometry" />
        </mxCell>
        <mxCell id="4AtZvL3RW2-XeUfKdOJ_-24" value="" style="rounded=0;whiteSpace=wrap;html=1;opacity=50;fillColor=#eeeeee;strokeColor=#36393d;" vertex="1" parent="1">
          <mxGeometry x="160" y="650" width="620" height="140" as="geometry" />
        </mxCell>
        <mxCell id="4AtZvL3RW2-XeUfKdOJ_-25" value="&lt;span style=&quot;font-size: 14px;&quot;&gt;&lt;b&gt;子任务分解&lt;/b&gt;&lt;/span&gt;" style="text;html=1;align=center;verticalAlign=middle;whiteSpace=wrap;rounded=0;" vertex="1" parent="1">
          <mxGeometry x="425" y="650" width="90" height="30" as="geometry" />
        </mxCell>
        <mxCell id="4AtZvL3RW2-XeUfKdOJ_-26" value="" style="html=1;shadow=0;dashed=0;align=center;verticalAlign=middle;shape=mxgraph.arrows2.arrow;dy=0.49;dx=15.66;direction=south;notch=0;fillColor=#FFE4E3;strokeColor=#36393d;" vertex="1" parent="1">
          <mxGeometry x="444" y="258" width="60" height="26" as="geometry" />
        </mxCell>
        <mxCell id="4AtZvL3RW2-XeUfKdOJ_-27" value="" style="html=1;shadow=0;dashed=0;align=center;verticalAlign=middle;shape=mxgraph.arrows2.arrow;dy=0.49;dx=15.66;direction=south;notch=0;fillColor=#fff2cc;strokeColor=#d6b656;" vertex="1" parent="1">
          <mxGeometry x="444" y="619" width="60" height="26" as="geometry" />
        </mxCell>
        <mxCell id="4AtZvL3RW2-XeUfKdOJ_-28" value="" style="rounded=0;whiteSpace=wrap;html=1;fillColor=#cce5ff;strokeColor=#36393d;dashed=1;" vertex="1" parent="1">
          <mxGeometry x="180" y="690" width="160" height="80" as="geometry" />
        </mxCell>
        <mxCell id="4AtZvL3RW2-XeUfKdOJ_-29" value="" style="rounded=0;whiteSpace=wrap;html=1;fillColor=#cce5ff;strokeColor=#36393d;dashed=1;" vertex="1" parent="1">
          <mxGeometry x="394" y="690" width="160" height="80" as="geometry" />
        </mxCell>
        <mxCell id="4AtZvL3RW2-XeUfKdOJ_-30" value="" style="rounded=0;whiteSpace=wrap;html=1;fillColor=#cce5ff;strokeColor=#36393d;dashed=1;" vertex="1" parent="1">
          <mxGeometry x="600" y="690" width="160" height="80" as="geometry" />
        </mxCell>
      </root>
    </mxGraphModel>
  </diagram>
</mxfile>
